Coordinates
version=1
nRows=21
nColumns=19
inDegrees=yes

Units are S.I. units (second, meters, Newtons, ...)
If the header above contains a line with 'inDegrees', this indicates whether rotational values are in degrees (yes) or radians (no).

endheader
time	pelvis_tilt	pelvis_list	pelvis_rotation	pelvis_tx	pelvis_ty	pelvis_tz	hip_flexion_r	hip_adduction_r	hip_rotation_r	knee_angle_r	knee_angle_r_beta	ankle_angle_r	hip_flexion_l	hip_adduction_l	hip_rotation_l	knee_angle_l	knee_angle_l_beta	ankle_angle_l
     11.64000000	     -3.53764169	     -1.33750835	      0.42545890	      2.27947544	      0.92923914	      1.04600280	     21.51774531	      5.54430476	     -4.74290630	     12.70130452	      0.22167958	      3.50674210	    -13.25894519	     -5.67027566	     -6.14370955	     63.15116856	      1.10219582	     -6.33990948
     11.64666667	     -3.18792545	     -1.69139217	      0.22566303	      2.27922112	      0.92400078	      1.04628614	     21.87851642	      5.84911555	     -5.36761751	     15.63878103	      0.27294822	      3.81608897	    -12.73474524	     -6.19053139	     -5.79213644	     66.71342077	      1.16436885	     -5.96216267
     11.65333333	     -2.96608389	     -2.01844701	      0.04735565	      2.27879836	      0.91835008	      1.04645113	     22.45654425	      6.07323503	     -6.00106028	     18.85858199	      0.32914435	      4.31847812	    -11.99111337	     -6.65750523	     -5.38382953	     70.27325740	      1.22649972	     -5.56820185
     11.66000000	     -2.89479940	     -2.25075609	     -0.12873217	      2.27822907	      0.91233823	      1.04646525	     23.24342952	      6.16220032	     -6.52363311	     22.28909743	      0.38901814	      5.17381972	    -10.99770782	     -6.98418367	     -4.92713858	     73.80241673	      1.28809517	     -5.19630542
     11.66666667	     -2.92104343	     -2.46042647	     -0.30762077	      2.27748401	      0.90613634	      1.04640029	     24.11774155	      6.22513761	     -6.91326058	     25.76803499	      0.44973705	      6.30975003	     -9.81594457	     -7.27384885	     -4.47051400	     77.28810444	      1.34893190	     -4.80920340
     11.67333333	     -2.98875080	     -2.62820156	     -0.47739847	      2.27652366	      0.89992845	      1.04625081	     24.96922404	      6.25706578	     -7.15707940	     29.17862694	      0.50926311	      7.72869626	     -8.48967720	     -7.50107835	     -3.99480068	     80.70707518	      1.40860419	     -4.43301048
     11.68000000	     -3.14621440	     -2.75769105	     -0.64534234	      2.27534922	      0.89379870	      1.04604476	     25.81928245	      6.28393227	     -7.23608821	     32.45162729	      0.56638774	      9.42614872	     -6.95506812	     -7.67703087	     -3.50810833	     84.05064953	      1.46696057	     -4.08270568
     11.68666667	     -3.36829700	     -2.91251257	     -0.82343415	      2.27397767	      0.88790565	      1.04581747	     26.57626928	      6.39289943	     -7.15720810	     35.44345665	      0.61860502	     11.30029218	     -5.24113042	     -7.89066554	     -3.05162510	     87.30608505	      1.52377864	     -3.73212519
     11.69333333	     -3.57091988	     -3.05875230	     -1.00315455	      2.27237289	      0.88246008	      1.04557033	     27.12998528	      6.54059538	     -6.96913656	     38.11769451	      0.66527927	     13.30821336	     -3.43668029	     -8.09014838	     -2.59882803	     90.42236226	      1.57816794	     -3.41595956
     11.70000000	     -3.17076561	     -3.40130822	     -1.25072608	      2.27076950	      0.87817196	      1.04548352	     26.73176892	      6.96715161	     -6.71874968	     40.26791864	      0.70280776	     15.46036971	     -2.31287266	     -8.60678922	     -2.38224082	     93.24344378	      1.62740510	     -3.03388270
     11.70666667	     -4.01369154	     -3.36508148	     -1.35106094	      2.26861049	      0.87324377	      1.04509626	     27.63749490	      6.97970012	     -6.35465883	     42.31289721	      0.73849937	     17.32447304	      0.56748114	     -8.50257845	     -1.67621115	     96.16742109	      1.67843813	     -2.83165489
     11.71333333	     -3.72808624	     -3.61386887	     -1.58744394	      2.26661488	      0.87024908	      1.04495791	     26.92079451	      7.37128686	     -5.93932011	     43.65936076	      0.76199959	     19.27944285	      2.08197652	     -8.83723177	     -1.36315941	     98.61397072	      1.72113848	     -2.55299193
     11.72000000	     -4.41829217	     -3.63791955	     -1.66383269	      2.26426824	      0.86688268	      1.04461028	     27.16894305	      7.46625882	     -5.61010588	     44.80307087	      0.78196110	     20.88275003	      4.96713394	     -8.82873195	     -0.72320071	    101.03305550	      1.76335947	     -2.40282486
     11.72666667	     -4.24109695	     -3.78428361	     -1.83248389	      2.26210523	      0.86532173	      1.04440007	     26.12523879	      7.73554462	     -5.19772137	     45.33697044	      0.79127941	     22.40523557	      6.80829941	     -8.99069188	     -0.33788940	    102.96585312	      1.79709315	     -2.20046261
     11.73333333	     -4.68107266	     -3.84489166	     -1.85720864	      2.25976508	      0.86375992	      1.04403236	     25.61906990	      7.83262742	     -4.96074392	     45.59185496	      0.79572798	     23.54302906	      9.53809411	     -8.98002554	      0.28132952	    104.76729489	      1.82853424	     -2.11823701
     11.74000000	     -4.69130046	     -3.84889123	     -1.96022885	      2.25756619	      0.86351378	      1.04379849	     24.40628478	      7.91450871	     -4.59268136	     45.42016495	      0.79273143	     24.55476030	     11.72318397	     -8.93389918	      0.66752630	    106.10003906	      1.85179502	     -1.98719093
     11.74666667	     -4.50289164	     -3.66806714	     -2.20313773	      2.25545226	      0.86426917	      1.04368582	     22.82410445	      7.86328236	     -3.96436046	     44.97213693	      0.78491186	     25.28188810	     13.60910748	     -8.64543072	      0.80220023	    106.99341810	      1.86738742	     -1.84799153
     11.75333333	     -4.51792484	     -3.50825187	     -2.33886567	      2.25359570	      0.86547825	      1.04350000	     21.26872018	      7.74816983	     -3.55434846	     44.16564331	      0.77083589	     25.82324874	     15.72407881	     -8.38530365	      0.98444725	    107.57808873	      1.87759185	     -1.73485594
     11.76000000	     -4.58780924	     -3.24329145	     -2.46476881	      2.25183904	      0.86730383	      1.04331180	     19.66990719	      7.52420144	     -3.08345387	     43.14187261	      0.75296772	     26.04813784	     17.85506232	     -8.00679559	      1.05970761	    107.80432783	      1.88154047	     -1.56745264
     11.76666667	     -4.75405965	     -2.94573727	     -2.56029312	      2.25033075	      0.86965100	      1.04309513	     18.05163253	      7.23384574	     -2.67758174	     41.87287664	      0.73081956	     26.03911286	     20.01584312	     -7.59486655	      1.06563607	    107.67642849	      1.87930820	     -1.40824098
     11.77333333	     -4.84752558	     -2.88747682	     -2.40816147	      2.24899600	      0.87263756	      1.04265162	     16.16187101	      7.12919993	     -2.55442872	     40.19422362	      0.70152154	     25.61974976	     22.09537108	     -7.38001354	      1.33010152	    107.28879129	      1.87254266	     -1.31176787
